<svg xmlns="http://www.w3.org/2000/svg" xmlns:xlink="http://www.w3.org/1999/xlink" width="3203" height="542" version="1.1" viewBox="0 0 3203 542"><title>bg-docsearch</title><desc>Created with Sketch.</desc><g id="bg-docsearch" fill="none" fill-rule="evenodd" stroke="none" stroke-width="1"><path id="Shape" stroke="#5468FF" d="M3209.5,541 L1681,541"/><g id="Group" stroke="#C5C9E0" transform="translate(1601.000000, 59.000000)"><path id="Shape" d="M1607.48047,445 L782,445 C740.355474,445 74,480 74,480"/><path id="Shape" d="M1607.48047,407 L782,407 C698.72547,407 68,476 68,476"/><path id="Shape" d="M1607.48047,371 L782,371 C657.120377,371 62,475 62,475"/><path id="Shape" d="M1607.48047,334 L782,334 C615.518315,334 56,472 56,472"/><path id="Shape" d="M1607.48047,296 L782,296 C573.929702,296 50,469 50,469"/><path id="Shape" d="M1607.48047,260 L781,260 C531.357839,260 43,467 43,467"/><path id="Shape" d="M1607.48047,222 L782,222 C490.404295,222 37,464 37,464"/><path id="Shape" d="M1607.48047,185 L782,185 C448.802354,185 31,462 31,462"/><path id="Shape" d="M1607.48047,148 L782,148 C407.213422,148 25,460 25,460"/><path id="Shape" d="M1607.48047,111 L782,111 C365.643061,111 19,456 19,456"/><path id="Shape" d="M1607.48047,74 L782,74 C323.48428,74 12,454 12,454"/><path id="Shape" d="M1607.48047,37 L782,37 C281.884061,37 6,452 6,452"/><path id="Shape" d="M1607.48047,0 L781,0 C239.946107,0 0,450 0,450"/></g><g id="Group" stroke="#C5C9E0" transform="translate(793.000000, 299.000000) scale(-1, 1) translate(-793.000000, -299.000000) translate(-11.000000, 59.000000)"><path id="Shape" d="M1607.48047,445 L782,445 C740.355474,445 74,480 74,480"/><path id="Shape" d="M1607.48047,407 L782,407 C698.72547,407 68,476 68,476"/><path id="Shape" d="M1607.48047,371 L782,371 C657.120377,371 62,475 62,475"/><path id="Shape" d="M1607.48047,334 L782,334 C615.518315,334 56,472 56,472"/><path id="Shape" d="M1607.48047,296 L782,296 C573.929702,296 50,469 50,469"/><path id="Shape" d="M1607.48047,260 L781,260 C531.357839,260 43,467 43,467"/><path id="Shape" d="M1607.48047,222 L782,222 C490.404295,222 37,464 37,464"/><path id="Shape" d="M1607.48047,185 L782,185 C448.802354,185 31,462 31,462"/><path id="Shape" d="M1607.48047,148 L782,148 C407.213422,148 25,460 25,460"/><path id="Shape" d="M1607.48047,111 L782,111 C365.643061,111 19,456 19,456"/><path id="Shape" d="M1607.48047,74 L782,74 C323.48428,74 12,454 12,454"/><path id="Shape" d="M1607.48047,37 L782,37 C281.884061,37 6,452 6,452"/><path id="Shape" d="M1607.48047,0 L781,0 C239.946107,0 0,450 0,450"/></g><path id="Shape" stroke="#5468FF" d="M-7.5,541 L1681,541"/><circle id="Oval" cx="1030" cy="197" r="6" fill="#FFF" fill-rule="nonzero" stroke="#C5C9E0"/><circle id="Oval" cx="1282" cy="422" r="6" fill="#FFF" fill-rule="nonzero" stroke="#C5C9E0"/><circle id="Oval" cx="1913" cy="473" r="6" fill="#FFF" fill-rule="nonzero" stroke="#C5C9E0"/><circle id="Oval" cx="2176" cy="234" r="6" fill="#FFF" fill-rule="nonzero" stroke="#C5C9E0"/><rect id="Rectangle-path" width="14" height="14" x="2033" y="200" fill="#FFF" fill-rule="nonzero" stroke="#C5C9E0" transform="translate(2040.000000, 207.000000) rotate(-45.000000) translate(-2040.000000, -207.000000)"/><path id="Shape" fill="#FFF" fill-rule="nonzero" stroke="#C5C9E0" d="M2040,202 L2040,211"/><path id="Shape" fill="#FFF" fill-rule="nonzero" stroke="#C5C9E0" d="M2045.5,207 L2035,207"/><rect id="Rectangle-path" width="15" height="15" x="1149" y="406" fill="#FFF" fill-rule="nonzero" stroke="#C5C9E0" transform="translate(1156.500000, 413.500000) rotate(-45.000000) translate(-1156.500000, -413.500000)"/><path id="Shape" fill="#FFF" fill-rule="nonzero" stroke="#C5C9E0" d="M1156,409 L1156,418"/><path id="Shape" fill="#FFF" fill-rule="nonzero" stroke="#C5C9E0" d="M1160,414 L1151,414"/><rect id="Rectangle-path" width="15" height="15" x="896" y="205" fill="#FFF" fill-rule="nonzero" stroke="#C5C9E0" transform="translate(903.500000, 212.500000) rotate(-45.000000) translate(-903.500000, -212.500000)"/><path id="Shape" fill="#FFF" fill-rule="nonzero" stroke="#C5C9E0" d="M903,208 L903,217"/><path id="Shape" fill="#FFF" fill-rule="nonzero" stroke="#C5C9E0" d="M908,213 L899,213"/><rect id="Rectangle-path" width="15" height="15" x="2284" y="431" fill="#FFF" fill-rule="nonzero" stroke="#C5C9E0" transform="translate(2291.500000, 438.500000) rotate(-45.000000) translate(-2291.500000, -438.500000)"/><path id="Shape" fill="#FFF" fill-rule="nonzero" stroke="#C5C9E0" d="M2292,434 L2292,443"/><path id="Shape" fill="#FFF" fill-rule="nonzero" stroke="#C5C9E0" d="M2297,438 L2288,438"/><rect id="Rectangle-path" width="15" height="15" x="1780" y="401" fill="#FFF" fill-rule="nonzero" stroke="#C5C9E0" transform="translate(1787.500000, 408.500000) rotate(-45.000000) translate(-1787.500000, -408.500000)"/><path id="Shape" fill="#FFF" fill-rule="nonzero" stroke="#C5C9E0" d="M1788,404 L1788,413"/><path id="Shape" fill="#FFF" fill-rule="nonzero" stroke="#C5C9E0" d="M1791,409 L1782,409"/><g id="Group-4" fill="#FFF" fill-rule="nonzero" stroke="#C5C9E0" transform="translate(1403.000000, 368.000000)"><rect id="Rectangle-path" width="15.358" height="15.358" x="3.29" y="3.249" transform="translate(10.968725, 10.928245) rotate(-45.000000) translate(-10.968725, -10.928245)"/><path id="Shape" d="M10.9647202,6.13628037 L10.9647202,15.7311981"/><path id="Shape" d="M15.7675155,10.9284028 L6.17259781,10.9284028"/></g><g id="Group-4-Copy" fill="#FFF" fill-rule="nonzero" stroke="#C5C9E0" transform="translate(1176.000000, 124.000000)"><rect id="Rectangle-path" width="15.358" height="15.358" x="3.29" y="3.249" transform="translate(10.968725, 10.928245) rotate(-45.000000) translate(-10.968725, -10.928245)"/><path id="Shape" d="M10.9647202,6.13628037 L10.9647202,15.7311981"/><path id="Shape" d="M15.7675155,10.9284028 L6.17259781,10.9284028"/></g></g></svg>